# AST/ASF file generated using VICON BodyLanguage
# -----------------------------------------------
:version 1.10
:name VICON
:units
  mass 1.0
  length 0.45
  angle deg
:documentation
   .ast/.asf automatically generated from VICON data using
   VICON BodyBuilder and BodyLanguage model FoxedUp or BRILLIANT.MOD
:root
   order TX TY TZ RX RY RZ
   axis XYZ
   position 0 0 0  
   orientation 0 0 0 
:bonedata
  begin
     id 1 
     name lhipjoint
     direction 0.671379 -0.66392 0.329334 
     length 2.38647 
     axis 0 0 0  XYZ
  end
  begin
     id 2 
     name lfemur
     direction 0.34202 -0.939693 0  
     length 6.48179  
     axis 0 0 20  XYZ
    dof rx ry rz
    limits (-160.0 20.0)
           (-70.0 70.0)
           (-60.0 70.0)
  end
  begin
     id 3 
     name ltibia
     direction 0.34202 -0.939693 0   
     length 6.86524   
     axis 0 0 20   XYZ
    dof rx
    limits (-10.0 170.0)
  end
  begin
     id 4 
     name lfoot
     direction 0.204886 -0.562919 0.800715   
     length 1.73031   
     axis -90 7.62852e-016 20   XYZ
    dof rx rz
    limits (-45.0 90.0)
           (-70.0 20.0)
  end
  begin
     id 5 
     name ltoes
     direction 1.53548e-011 -4.21841e-011 1   
     length 0.828161   
     axis -90 7.62852e-016 20   XYZ
    dof rx
    limits (-90.0 20.0)
  end
  begin
     id 6 
     name rhipjoint
     direction -0.662732 -0.670855 0.332775   
     length 2.3618  
     axis 0 0 0  XYZ 
  end
  begin
     id 7 
     name rfemur
     direction -0.34202 -0.939693 0   
     length 6.3025   
     axis 0 0 -20   XYZ
    dof rx ry rz
    limits (-160.0 20.0)
           (-70.0 70.0)
           (-70.0 60.0)
  end
  begin
     id 8 
     name rtibia
     direction -0.34202 -0.939693 0   
     length 6.8732   
     axis 0 0 -20   XYZ
    dof rx
    limits (-10.0 170.0)
 end
 begin
     id 9 
     name rfoot
     direction -0.173856 -0.477665 0.861168   
     length 1.54784  
     axis -90 -7.62852e-016 -20   XYZ
    dof rx rz
    limits (-45.0 90.0)
           (-20.0 70.0)
  end
  begin
     id 10 
     name rtoes
     direction -1.53562e-011 -4.21802e-011 1   
     length 0.759618   
     axis -90 -7.62852e-016 -20   XYZ
    dof rx
    limits (-90.0 20.0)
  end
  begin
     id 11 
     name lowerback
     direction -0.0278357 0.999497 -0.0151789   
     length 1.97203   
     axis 0 0 0   XYZ
    dof rx ry rz
    limits (-20.0 45.0)
           (-30.0 30.0)
           (-30.0 30.0)
  end
  begin
     id 12 
     name upperback
     direction -0.00360622 0.997542 0.0699804   
     length 1.94709   
     axis 0 0 0   XYZ
    dof rx ry rz
    limits (-20.0 45.0)
           (-30.0 30.0)
           (-30.0 30.0)
  end
  begin
     id 13 
     name thorax
     direction 0.00907706 0.997048 0.0762461   
     length 1.95722   
     axis 0 0 0   XYZ
    dof rx ry rz
    limits (-20.0 45.0)
           (-30.0 30.0)
           (-30.0 30.0)
  end
  begin
     id 14 
     name lowerneck
     direction -0.0481835 0.99872 -0.0153927   
     length 1.63078   
     axis 0 0 0   XYZ
    dof rx ry rz
    limits (-20.0 45.0)
           (-30.0 30.0)
           (-30.0 30.0)
  end
  begin
     id 15 
     name upperneck
     direction 0.0859716 0.979226 -0.183644   
     length 1.62591   
     axis 0 0 0   XYZ
    dof rx ry rz
    limits (-20.0 45.0)
           (-30.0 30.0)
           (-30.0 30.0)
  end
  begin
     id 16
     name head
     direction 0.0324821 0.997629 -0.0606773  
     length 1.64811  
     axis 0 0 0   XYZ
    dof rx ry rz
    limits (-20.0 45.0)
           (-30.0 30.0)
           (-30.0 30.0)
  end
  begin
     id 17 
     name lclavicle
     direction 0.939609 0.311019 0.142835  
     length 3.70647  
     axis 0 0 0   XYZ
    dof ry rz
    limits (-20.0 10.0)
           (0.0 20.0)
  end
  begin
     id 18 
     name lhumerus
     direction 1 -4.48963e-011 -1.59838e-027   
     length 4.59207   
     axis 180 -30 -90   XYZ
    dof rx ry rz
    limits (-60.0 90.0)
           (-90.0 90.0)
           (-90.0 90.0)
  end
  begin
     id 19
     name lradius
     direction 1 -4.48957e-011 -1.3483e-026   
     length 2.98109   
     axis 180 -30 -90   XYZ
    dof rx
    limits (-10.0 170.0)
  end
  begin
     id 20
     name lwrist
     direction 1 -4.48954e-011 -3.11579e-026   
     length 1.49055   
     axis 2.00652e-014 90 90   XYZ
    dof ry
    limits (-180.0 0.0)
 end
  begin
     id 21 
     name lhand
     direction 1 -4.4911e-011 -6.23158e-026   
     length 0.480203   
     axis 3.97628e-014 90 90   XYZ
    dof rx rz
    limits (-90.0 90.0)
           (-45.0 45.0)
  end
  begin
     id 22 
     name lfingers
     direction 1 -4.48893e-011 -1.24632e-025   
     length 0.387152   
     axis 7.95256e-014 90 90   XYZ
    dof rx
    limits (0.0 90.0)
  end
  begin
     id 23
     name lthumb
     direction 0.707107 -6.35013e-011 0.707107   
     length 0.555875   
     axis -90 45 2.85299e-015   XYZ
    dof rx rz
    limits (-45.0 45.0)
           (-45.0 45.0)
  end
  begin
     id 24 
     name rclavicle
     direction -0.950396 0.30392 0.0661859   
     length 3.70894  
     axis 0 0 0   XYZ 
    dof ry rz
    limits (-10.0 20.0)
           (-20.0 0.0)
  end
  begin
     id 25 
     name rhumerus
     direction -1 -4.48957e-011 -2.96677e-027  
     length 4.76508   
     axis 180 30 90   XYZ
    dof rx ry rz
    limits (-90.0 60.0)
           (-90.0 90.0)
           (-90.0 90.0)
  end
  begin
     id 26 
     name rradius
     direction -1 -4.48974e-011 -1.44501e-026   
     length 2.78902   
     axis 180 30 90   XYZ
    dof rx
    limits (-10.0 170.0)
  end
  begin
     id 27 
     name rwrist
     direction -1 -4.48978e-011 -3.11579e-026   
     length 1.39451   
     axis 2.00652e-014 -90 -90   XYZ
    dof ry
    limits (-180.0 0.0)
  end
  begin
     id 28
     name rhand
     direction -1 -4.48956e-011 -6.23158e-026   
     length 0.721303   
     axis 3.97628e-014 -90 -90   XYZ
    dof rx rz
    limits (-90.0 90.0)
           (-45.0 45.0)
  end
  begin
     id 29
     name rfingers
     direction -1 -4.4899e-011 -1.24632e-025   
     length 0.581533   
     axis 7.95256e-014 -90 -90   XYZ
    dof rx
    limits (0.0 90.0)
  end
  begin
     id 30
     name rthumb
     direction -0.707107 -6.34911e-011 0.707107   
     length 0.834968   
     axis -90 -45 -2.85299e-015   XYZ
    dof rx rz
    limits (-45.0 45.0)
           (-45.0 45.0)
  end
:hierarchy
  begin
    root lhipjoint rhipjoint lowerback
    lhipjoint lfemur
    lfemur ltibia
    ltibia lfoot
    lfoot ltoes
    rhipjoint rfemur
    rfemur rtibia
    rtibia rfoot
    rfoot rtoes
    lowerback upperback
    upperback thorax
    thorax lowerneck lclavicle rclavicle
    lowerneck upperneck
    upperneck head
    lclavicle lhumerus
    lhumerus lradius
    lradius lwrist
    lwrist lhand lthumb
    lhand lfingers
    rclavicle rhumerus
    rhumerus rradius
    rradius rwrist
    rwrist rhand rthumb
    rhand rfingers
  end

#!OML:ASF I:\salsa\salsa 7_09\Patient 1\Session 1\dancerfemale.ASF
:FULLY-SPECIFIED
:DEGREES
936
root 4.82028 15.5614 -0.925423 330.762 256.016 -329.703
lowerback 7.83021 -1.9717 5.91593
upperback -3.11074 -2.00754 -0.00795149
thorax -7.91192 -1.28636 -3.03708
lowerneck 0.956759 5.40279 -0.66646
upperneck -0.544332 7.21772 5.15706
head -0.554339 3.56916 1.64041
rclavicle -3.55825e-014 -3.18055e-015
rhumerus -51.0133 -0.0907131 -102.7
rradius 88.7999
rwrist -6.11262
rhand 1.92553 44.2063
rfingers 7.12502
rthumb 27.4334 16.1838
lclavicle -3.55825e-014 -3.18055e-015
lhumerus -23.142 8.76987 86.7292
lradius 90.141
lwrist -37.9128
lhand -26.1378 56.1629
lfingers 7.12502
lthumb 0.41266 -633.858
rfemur -16.7675 -8.02123 31.3109
rtibia 34.4764
rfoot -21.9756 7.23829
rtoes -3.46068
lfemur -26.1072 24.952 -14.7875
ltibia 82.0717
lfoot 7.16528 7.89786
ltoes -2.51764
937
root 4.54243 15.6417 -0.928126 336.008 252.965 -335.828
lowerback 8.45315 -1.67688 4.98399
upperback -2.67463 -1.6703 0.182011
thorax -7.72562 -1.0544 -2.35747
lowerneck 1.04115 6.32067 -0.0871731
upperneck -0.457552 8.44285 4.80427
head -0.535674 4.18168 1.41507
rclavicle 2.36305e-014 -7.15625e-015
rhumerus -50.1384 0.161966 -102.969
rradius 89.3203
rwrist -6.31672
rhand 1.88682 44.1556
rfingers 7.12502
rthumb 27.3963 16.1272
lclavicle 2.36305e-014 -7.15625e-015
lhumerus -24.0014 11.1268 83.8023
lradius 90.942
lwrist -36.4277
lhand -26.0158 54.1251
lfingers 7.12502
lthumb 0.530476 -635.896
rfemur -13.7463 -8.19925 30.7455
rtibia 32.6837
rfoot -21.8442 9.94114
rtoes -3.89382
lfemur -26.8075 28.6305 -13.6089
ltibia 82.9879
lfoot 5.47635 7.77001
ltoes -2.40955
938
root 4.29086 15.6791 -0.93016 339.249 250.234 -339.987
lowerback 9.41404 -1.46944 3.86471
upperback -2.32061 -1.46616 0.372148
thorax -7.84133 -0.890563 -1.54513
lowerneck 0.811334 7.18384 0.194524
upperneck -0.0308049 9.57395 4.76999
head -0.378763 4.75617 1.36181
rclavicle 7.3923e-014 -1.51076e-014
rhumerus -49.3655 0.573406 -103.208
rradius 89.8501
rwrist -6.31674
rhand 1.58482 43.7775
rfingers 7.12502
rthumb 27.1075 15.7038
lclavicle 7.3923e-014 -1.51076e-014
lhumerus -25.0305 13.7307 80.8485
lradius 91.9631
lwrist -34.4385
lhand -26.2111 52.3153
lfingers 7.12502
lthumb 0.341889 -637.705
rfemur -11.1744 -8.03109 30.0937
rtibia 31.4297
rfoot -22.0657 11.7707
rtoes -4.49372
lfemur -27.6194 30.6343 -12.5725
ltibia 82.9309
lfoot 4.39275 8.07009
ltoes -2.42056
939
root 4.04169 15.7003 -0.920697 341.591 248.271 -341.222
lowerback 8.4459 -1.46809 3.49333
upperback -2.5437 -1.5317 0.66795
thorax -7.50474 -0.898693 -1.03213
lowerneck 0.585375 7.96083 0.554383
upperneck 0.403596 10.5881 4.63174
head -0.204492 5.27359 1.27195
rclavicle 1.20513e-014 1.51076e-014
rhumerus -48.8294 0.847487 -103.28
rradius 90.1067
rwrist -6.21735
rhand 1.29947 43.5609
rfingers 7.12502
rthumb 26.8344 15.445
lclavicle 1.20513e-014 1.51076e-014
lhumerus -26.1563 16.3094 77.822
lradius 93.0257
lwrist -32.1648
lhand -26.9986 50.7714
lfingers 7.12502
lthumb -0.418781 -639.249
rfemur -10.8182 -6.64948 30.1508
rtibia 30.2787
rfoot -22.2343 11.9081
rtoes -4.66645
lfemur -31.3604 31.1791 -12.8064
ltibia 82.5703
lfoot 2.30692 8.80339
ltoes -2.96202
940
root 3.8853 15.6886 -0.879907 340.852 248.942 -338.288
lowerback 7.95317 -2.36839 3.96935
upperback -3.33628 -2.67187 1.15668
thorax -8.12614 -1.48966 -0.603606
lowerneck 0.406965 8.63432 0.959429
upperneck 0.735839 11.469 4.36742
head -0.0524906 5.72312 1.14002
rclavicle -2.51214e-014 -5.56597e-015
rhumerus -48.44 1.06898 -103.198
rradius 90.2331
rwrist -6.40649
rhand 1.68674 43.3969
rfingers 7.12502
rthumb 27.205 15.3385
lclavicle -2.51214e-014 -5.56597e-015
lhumerus -27.0763 19.0574 74.0953
lradius 93.9012
lwrist -31.9855
lhand -24.6465 51.3823
lfingers 7.12502
lthumb 1.85302 -638.646
rfemur -12.0781 -6.05779 30.8974
rtibia 29.5681
rfoot -22.4091 10.2215
rtoes -5.21904
lfemur -37.6754 28.1381 -13.7751
ltibia 81.9629
lfoot 0.149038 10.8194
ltoes -4.30989
941
root 3.62675 15.698 -0.835421 340.622 247.23 -337.246
lowerback 7.60347 -2.35839 4.90499
upperback -3.47708 -2.55862 1.54358
thorax -8.10017 -1.48057 -0.742921
lowerneck 0.165107 9.1751 1.26405
upperneck 0.981734 12.1739 4.18205
head 0.0796648 6.08353 1.05491
rclavicle -2.88735e-014 3.57812e-015
rhumerus -48.1636 1.26295 -102.985
rradius 90.6737
rwrist -6.88556
rhand 2.31086 43.1287
rfingers 7.12502
rthumb 27.8018 15.1651
lclavicle -2.88735e-014 3.57812e-015
lhumerus -28.0857 21.8971 70.6907
lradius 94.9068
lwrist -31.5173
lhand -22.8463 51.5474
lfingers 7.12502
lthumb 3.5915 -638.503
rfemur -11.3594 -4.62546 31.4666
rtibia 28.8115
rfoot -22.7422 9.91704
rtoes -6.08561
lfemur -40.0359 27.7027 -12.7165
ltibia 80.2446
lfoot -3.72416 11.9211
ltoes -9.46477
